<svg width="201" height="32" viewBox="0 0 201 32" fill="none" xmlns="http://www.w3.org/2000/svg">
<path d="M0 16C0 7.16344 7.16344 0 16 0H37C45.8366 0 53 7.16344 53 16V32H16C7.16344 32 0 24.8366 0 16Z" fill="#4845D2"/>
<path d="M37 6H16C10.4772 6 6 10.4772 6 16C6 21.5228 10.4772 26 16 26H37C42.5228 26 47 21.5228 47 16C47 10.4772 42.5228 6 37 6Z" fill="#A5B4FC"/>
<path d="M16 21C18.7614 21 21 18.7614 21 16C21 13.2386 18.7614 11 16 11C13.2386 11 11 13.2386 11 16C11 18.7614 13.2386 21 16 21Z" fill="black"/>
<path d="M14 15C14.5523 15 15 14.5523 15 14C15 13.4477 14.5523 13 14 13C13.4477 13 13 13.4477 13 14C13 14.5523 13.4477 15 14 15Z" fill="white"/>
<path d="M38 21C40.7614 21 43 18.7614 43 16C43 13.2386 40.7614 11 38 11C35.2386 11 33 13.2386 33 16C33 18.7614 35.2386 21 38 21Z" fill="black"/>
<path d="M36 15C36.5523 15 37 14.5523 37 14C37 13.4477 36.5523 13 36 13C35.4477 13 35 13.4477 35 14C35 14.5523 35.4477 15 36 15Z" fill="white"/>
<path d="M75.098 13.5469H71.9872C71.9304 13.1444 71.8144 12.7869 71.6392 12.4744C71.464 12.1572 71.2391 11.8873 70.9645 11.6648C70.6899 11.4422 70.3726 11.2718 70.0128 11.1534C69.6577 11.035 69.2718 10.9759 68.8551 10.9759C68.1023 10.9759 67.4465 11.1629 66.8878 11.5369C66.3291 11.9062 65.8958 12.446 65.5881 13.1562C65.2803 13.8617 65.1264 14.7187 65.1264 15.7273C65.1264 16.7642 65.2803 17.6354 65.5881 18.3409C65.9006 19.0464 66.3362 19.5791 66.8949 19.9389C67.4536 20.2988 68.0999 20.4787 68.8338 20.4787C69.2457 20.4787 69.6269 20.4242 69.9773 20.3153C70.3324 20.2064 70.6473 20.0478 70.9219 19.8395C71.1965 19.6264 71.4238 19.3684 71.6037 19.0653C71.7884 18.7623 71.9162 18.4167 71.9872 18.0284L75.098 18.0426C75.0175 18.7102 74.8163 19.3542 74.4943 19.9744C74.1771 20.59 73.7486 21.1416 73.2088 21.6293C72.6738 22.1122 72.0346 22.4957 71.2912 22.7798C70.5526 23.0592 69.7169 23.1989 68.7841 23.1989C67.4867 23.1989 66.3267 22.9053 65.304 22.3182C64.286 21.7311 63.4811 20.8812 62.8892 19.7685C62.3021 18.6558 62.0085 17.3087 62.0085 15.7273C62.0085 14.1411 62.3068 12.7917 62.9034 11.679C63.5 10.5663 64.3097 9.71875 65.3324 9.13636C66.3551 8.54924 67.5057 8.25568 68.7841 8.25568C69.6269 8.25568 70.4081 8.37405 71.1278 8.6108C71.8523 8.84754 72.4938 9.19318 73.0526 9.64773C73.6113 10.0975 74.0658 10.6491 74.4162 11.3026C74.7713 11.956 74.9986 12.7041 75.098 13.5469ZM77.2464 23V12.0909H80.272V23H77.2464ZM78.7663 10.6847C78.3165 10.6847 77.9306 10.5355 77.6087 10.2372C77.2914 9.93419 77.1328 9.57197 77.1328 9.15057C77.1328 8.7339 77.2914 8.37642 77.6087 8.07812C77.9306 7.77509 78.3165 7.62358 78.7663 7.62358C79.2161 7.62358 79.5997 7.77509 79.9169 8.07812C80.2389 8.37642 80.3999 8.7339 80.3999 9.15057C80.3999 9.57197 80.2389 9.93419 79.9169 10.2372C79.5997 10.5355 79.2161 10.6847 78.7663 10.6847ZM85.7212 16.6932V23H82.6957V12.0909H85.5792V14.0156H85.707C85.9485 13.3812 86.3533 12.8793 86.9215 12.5099C87.4897 12.1359 88.1786 11.9489 88.9883 11.9489C89.7459 11.9489 90.4064 12.1146 90.9698 12.446C91.5333 12.7775 91.9712 13.2509 92.2837 13.8665C92.5962 14.4773 92.7525 15.2064 92.7525 16.054V23H89.7269V16.5938C89.7317 15.9261 89.5612 15.4053 89.2156 15.0312C88.8699 14.6525 88.3941 14.4631 87.788 14.4631C87.3808 14.4631 87.021 14.5507 86.7085 14.7259C86.4007 14.901 86.1592 15.1567 85.984 15.4929C85.8136 15.8243 85.726 16.2244 85.7212 16.6932ZM100.109 23.2131C98.9865 23.2131 98.0206 22.9858 97.2109 22.5312C96.406 22.072 95.7857 21.4233 95.3501 20.5852C94.9145 19.7424 94.6967 18.7457 94.6967 17.5952C94.6967 16.473 94.9145 15.4882 95.3501 14.6406C95.7857 13.7931 96.3989 13.1326 97.1896 12.6591C97.9851 12.1856 98.9179 11.9489 99.9879 11.9489C100.708 11.9489 101.378 12.0649 101.998 12.2969C102.623 12.5241 103.167 12.8674 103.631 13.3267C104.1 13.786 104.465 14.3636 104.725 15.0597C104.986 15.7509 105.116 16.5606 105.116 17.4886V18.3196H95.9041V16.4446H102.268C102.268 16.009 102.173 15.6231 101.984 15.2869C101.794 14.9508 101.531 14.688 101.195 14.4986C100.864 14.3045 100.478 14.2074 100.038 14.2074C99.5784 14.2074 99.1712 14.3139 98.8161 14.527C98.4657 14.7353 98.1911 15.017 97.9922 15.3722C97.7933 15.7225 97.6915 16.1132 97.6868 16.544V18.3267C97.6868 18.8665 97.7862 19.3329 97.9851 19.7259C98.1887 20.1188 98.4751 20.4219 98.8445 20.6349C99.2138 20.848 99.6518 20.9545 100.158 20.9545C100.495 20.9545 100.802 20.9072 101.082 20.8125C101.361 20.7178 101.6 20.5758 101.799 20.3864C101.998 20.197 102.149 19.965 102.254 19.6903L105.052 19.875C104.91 20.5473 104.619 21.1345 104.178 21.6364C103.743 22.1335 103.179 22.5218 102.488 22.8011C101.801 23.0758 101.008 23.2131 100.109 23.2131ZM107.09 23V12.0909H109.974V14.0156H110.102C110.329 13.3764 110.708 12.8722 111.238 12.5028C111.768 12.1335 112.403 11.9489 113.141 11.9489C113.889 11.9489 114.526 12.1359 115.052 12.5099C115.577 12.8793 115.928 13.3812 116.103 14.0156H116.217C116.439 13.3906 116.842 12.8911 117.424 12.517C118.011 12.1383 118.705 11.9489 119.505 11.9489C120.523 11.9489 121.349 12.2732 121.984 12.9219C122.623 13.5658 122.942 14.4796 122.942 15.6634V23H119.924V16.2599C119.924 15.6539 119.763 15.1993 119.441 14.8963C119.119 14.5933 118.717 14.4418 118.234 14.4418C117.684 14.4418 117.256 14.617 116.948 14.9673C116.64 15.313 116.487 15.7699 116.487 16.3381V23H113.553V16.196C113.553 15.661 113.399 15.2348 113.092 14.9176C112.789 14.6004 112.388 14.4418 111.891 14.4418C111.555 14.4418 111.252 14.527 110.982 14.6974C110.717 14.8632 110.506 15.0975 110.35 15.4006C110.194 15.6989 110.116 16.0492 110.116 16.4517V23H107.09ZM128.443 23.206C127.747 23.206 127.127 23.0852 126.582 22.8438C126.038 22.5975 125.607 22.2353 125.29 21.7571C124.977 21.2741 124.821 20.6728 124.821 19.9531C124.821 19.3471 124.932 18.8381 125.155 18.4261C125.377 18.0142 125.68 17.6828 126.064 17.4318C126.447 17.1809 126.883 16.9915 127.371 16.8636C127.863 16.7358 128.379 16.6458 128.919 16.5938C129.554 16.5275 130.065 16.4659 130.453 16.4091C130.841 16.3475 131.123 16.2576 131.298 16.1392C131.473 16.0208 131.561 15.8456 131.561 15.6136V15.571C131.561 15.1212 131.419 14.7732 131.135 14.527C130.856 14.2808 130.458 14.1577 129.942 14.1577C129.397 14.1577 128.964 14.2784 128.642 14.5199C128.32 14.7566 128.107 15.0549 128.003 15.4148L125.205 15.1875C125.347 14.5246 125.626 13.9517 126.043 13.4688C126.459 12.9811 126.997 12.607 127.655 12.3466C128.318 12.0814 129.085 11.9489 129.956 11.9489C130.562 11.9489 131.142 12.0199 131.696 12.1619C132.255 12.304 132.75 12.5241 133.18 12.8224C133.616 13.1207 133.959 13.5043 134.21 13.973C134.461 14.437 134.587 14.9934 134.587 15.642V23H131.717V21.4872H131.632C131.457 21.8281 131.223 22.1288 130.929 22.3892C130.635 22.6449 130.283 22.8461 129.871 22.9929C129.459 23.1349 128.983 23.206 128.443 23.206ZM129.31 21.1179C129.755 21.1179 130.148 21.0303 130.489 20.8551C130.83 20.6752 131.097 20.4337 131.291 20.1307C131.485 19.8277 131.582 19.4844 131.582 19.1009V17.9432C131.488 18.0047 131.357 18.0616 131.192 18.1136C131.031 18.161 130.848 18.206 130.645 18.2486C130.441 18.2865 130.238 18.322 130.034 18.3551C129.83 18.3835 129.646 18.4096 129.48 18.4332C129.125 18.4853 128.815 18.5682 128.55 18.6818C128.285 18.7955 128.079 18.9493 127.932 19.1435C127.785 19.3329 127.712 19.5696 127.712 19.8537C127.712 20.2656 127.861 20.5805 128.159 20.7983C128.462 21.0114 128.846 21.1179 129.31 21.1179ZM139.249 23L135.087 8.45455H138.447L140.854 18.5611H140.975L143.631 8.45455H146.508L149.157 18.5824H149.285L151.692 8.45455H155.052L150.89 23H147.893L145.123 13.4901H145.009L142.246 23H139.249ZM158.58 23.206C157.884 23.206 157.264 23.0852 156.719 22.8438C156.175 22.5975 155.744 22.2353 155.426 21.7571C155.114 21.2741 154.958 20.6728 154.958 19.9531C154.958 19.3471 155.069 18.8381 155.292 18.4261C155.514 18.0142 155.817 17.6828 156.201 17.4318C156.584 17.1809 157.02 16.9915 157.507 16.8636C158 16.7358 158.516 16.6458 159.056 16.5938C159.69 16.5275 160.202 16.4659 160.59 16.4091C160.978 16.3475 161.26 16.2576 161.435 16.1392C161.61 16.0208 161.698 15.8456 161.698 15.6136V15.571C161.698 15.1212 161.556 14.7732 161.272 14.527C160.992 14.2808 160.595 14.1577 160.078 14.1577C159.534 14.1577 159.101 14.2784 158.779 14.5199C158.457 14.7566 158.244 15.0549 158.14 15.4148L155.341 15.1875C155.483 14.5246 155.763 13.9517 156.179 13.4688C156.596 12.9811 157.133 12.607 157.792 12.3466C158.454 12.0814 159.221 11.9489 160.093 11.9489C160.699 11.9489 161.279 12.0199 161.833 12.1619C162.391 12.304 162.886 12.5241 163.317 12.8224C163.753 13.1207 164.096 13.5043 164.347 13.973C164.598 14.437 164.723 14.9934 164.723 15.642V23H161.854V21.4872H161.769C161.594 21.8281 161.359 22.1288 161.066 22.3892C160.772 22.6449 160.419 22.8461 160.007 22.9929C159.596 23.1349 159.12 23.206 158.58 23.206ZM159.446 21.1179C159.891 21.1179 160.284 21.0303 160.625 20.8551C160.966 20.6752 161.234 20.4337 161.428 20.1307C161.622 19.8277 161.719 19.4844 161.719 19.1009V17.9432C161.624 18.0047 161.494 18.0616 161.328 18.1136C161.167 18.161 160.985 18.206 160.782 18.2486C160.578 18.2865 160.374 18.322 160.171 18.3551C159.967 18.3835 159.783 18.4096 159.617 18.4332C159.262 18.4853 158.952 18.5682 158.686 18.6818C158.421 18.7955 158.215 18.9493 158.069 19.1435C157.922 19.3329 157.848 19.5696 157.848 19.8537C157.848 20.2656 157.998 20.5805 158.296 20.7983C158.599 21.0114 158.982 21.1179 159.446 21.1179ZM172.873 12.0909V14.3636H166.304V12.0909H172.873ZM167.795 9.47727H170.821V19.6477C170.821 19.9271 170.863 20.1449 170.949 20.3011C171.034 20.4527 171.152 20.5592 171.304 20.6207C171.46 20.6823 171.64 20.7131 171.843 20.7131C171.985 20.7131 172.127 20.7012 172.27 20.6776C172.412 20.6491 172.52 20.6278 172.596 20.6136L173.072 22.8651C172.921 22.9124 172.708 22.9669 172.433 23.0284C172.158 23.0947 171.824 23.1349 171.431 23.1491C170.702 23.1776 170.063 23.0805 169.514 22.858C168.969 22.6354 168.546 22.2898 168.243 21.821C167.94 21.3523 167.79 20.7604 167.795 20.0455V9.47727ZM179.656 23.2131C178.538 23.2131 177.577 22.9763 176.772 22.5028C175.972 22.0246 175.357 21.3617 174.926 20.5142C174.5 19.6667 174.287 18.6913 174.287 17.5881C174.287 16.4706 174.502 15.4905 174.933 14.6477C175.368 13.8002 175.986 13.1397 176.787 12.6662C177.587 12.188 178.538 11.9489 179.642 11.9489C180.593 11.9489 181.427 12.1217 182.142 12.4673C182.857 12.813 183.422 13.2983 183.839 13.9233C184.256 14.5483 184.485 15.2822 184.528 16.125H181.673C181.592 15.5805 181.379 15.1425 181.034 14.8111C180.693 14.4749 180.245 14.3068 179.691 14.3068C179.223 14.3068 178.813 14.4347 178.463 14.6903C178.117 14.9413 177.847 15.3082 177.653 15.7912C177.459 16.2741 177.362 16.8589 177.362 17.5455C177.362 18.2415 177.457 18.8333 177.646 19.321C177.84 19.8087 178.112 20.1804 178.463 20.4361C178.813 20.6918 179.223 20.8196 179.691 20.8196C180.037 20.8196 180.347 20.7486 180.622 20.6065C180.901 20.4645 181.131 20.2585 181.311 19.9886C181.495 19.714 181.616 19.3849 181.673 19.0014H184.528C184.481 19.8348 184.253 20.5687 183.846 21.2031C183.444 21.8329 182.887 22.3253 182.177 22.6804C181.467 23.0355 180.627 23.2131 179.656 23.2131ZM189.491 16.6932V23H186.465V8.45455H189.406V14.0156H189.533C189.78 13.3717 190.177 12.8674 190.727 12.5028C191.276 12.1335 191.965 11.9489 192.793 11.9489C193.551 11.9489 194.211 12.1146 194.775 12.446C195.343 12.7727 195.783 13.2438 196.096 13.8594C196.413 14.4702 196.569 15.2017 196.565 16.054V23H193.539V16.5938C193.544 15.9214 193.373 15.3982 193.028 15.0241C192.687 14.6501 192.209 14.4631 191.593 14.4631C191.181 14.4631 190.817 14.5507 190.499 14.7259C190.187 14.901 189.941 15.1567 189.761 15.4929C189.585 15.8243 189.496 16.2244 189.491 16.6932Z" fill="#4845D2"/>
</svg>
